<svg width="30" height="30" viewBox="0 0 74 74" fill="none" xmlns="http://www.w3.org/2000/svg">
<path d="M52.571 62.53C49.5493 65.4592 46.2502 64.9967 43.0743 63.6092C39.7135 62.1908 36.6302 62.1292 33.0843 63.6092C28.6443 65.5208 26.301 64.9658 23.6493 62.53C8.60268 47.0208 10.8227 23.4025 27.9043 22.5392C32.0668 22.755 34.9652 24.8208 37.401 25.0058C41.0393 24.2658 44.5235 22.1383 48.4085 22.4158C53.0643 22.7858 56.5793 24.6358 58.8918 27.9658C49.2718 33.7317 51.5535 46.4042 60.3718 49.95C58.6143 54.575 56.3327 59.1692 52.5402 62.5608L52.571 62.53ZM37.0927 22.3542C36.6302 15.4783 42.211 9.805 48.6243 9.25C49.5185 17.205 41.4093 23.125 37.0927 22.3542Z" fill="white"/>
</svg>
